<svg width="75" height="57" viewBox="0 0 75 57" fill="none" xmlns="http://www.w3.org/2000/svg">
<path d="M74.1647 28.3118L73.2007 26.999H72.5226C72.5226 26.999 72.5226 27.5536 72.5226 27.7377C72.5226 27.82 72.6959 28.0215 72.8887 28.2208C72.3255 28.223 71.7644 28.1905 71.2011 28.1883C60.625 28.1731 50.0489 28.1905 39.4728 28.1861C38.9854 28.1861 38.7492 28.3183 38.6236 28.8079C37.9044 31.5873 37.1548 34.3602 36.4139 37.1353C36.4074 37.1613 36.4009 37.1873 36.3901 37.2133C36.2016 37.6661 36.3208 37.9542 36.7865 38.1773C37.3281 38.4351 37.8264 38.7817 38.5304 39.202C36.0391 39.202 33.7818 39.202 31.5071 39.202C31.7693 37.2805 32.4798 35.5106 32.8806 33.6648C33.2315 32.0466 33.7341 30.4565 34.2281 28.8729C34.3277 28.5501 34.3191 28.3811 34.2086 28.2923L33.2619 27.0033H32.5838C32.5838 27.0033 32.5838 27.5579 32.5838 27.742C32.5838 27.8222 32.7463 28.0128 32.9304 28.2078C30.7489 28.2251 28.5696 28.236 26.3881 28.2035C25.7576 28.1948 25.502 28.3919 25.3482 28.9985C24.5943 31.9556 23.7928 34.8997 23.0064 37.8481C21.5138 43.4351 20.0233 49.0242 18.5199 54.6069L18.2772 54.4921L17.0728 55.4215L18.0844 56.7906C18.0844 56.7906 18.1039 56.7884 18.1343 56.7863C18.2209 56.8491 18.3682 56.8751 18.6 56.8729C21.0892 56.8491 23.5761 56.8643 26.0653 56.8708C26.44 56.8729 26.6458 56.8513 26.7737 56.3573C27.5211 53.4804 28.3313 50.6187 29.1588 47.7634C29.291 47.3085 29.1371 47.1244 28.7905 46.938C28.2359 46.6369 27.6944 46.3141 27.1463 46.0022C29.0808 45.8484 30.9634 45.8484 32.8481 45.8484C34.0959 45.8484 34.0916 45.8484 33.7775 47.0139C33.0951 49.5528 32.4148 52.094 31.7433 54.6351L31.44 54.4921L30.2355 55.4215L31.2472 56.7906C31.2472 56.7906 31.2537 56.7906 31.258 56.7906C31.3208 56.8469 31.4356 56.8816 31.6349 56.8816C34.2584 56.8729 36.8818 56.8816 39.5053 56.8859C39.6743 56.8859 39.8346 56.8816 39.9342 56.7798C39.9667 56.8036 39.9884 56.8188 39.9884 56.8188L42.692 46.6348C43.6062 43.3527 44.4641 40.0556 45.3154 36.7562L45.6274 35.5842L45.6166 35.5907C45.6534 35.4456 45.6902 35.3026 45.7292 35.1574C45.8397 34.7263 46.0845 34.8347 46.3185 34.8325C47.3735 34.8217 48.4306 34.878 49.4813 34.8152C50.2417 34.7718 50.3024 35.0166 50.1226 35.6774C48.6711 41.0174 47.2543 46.3683 45.8072 51.7083C45.6685 52.2196 45.688 52.616 46.026 53.0558C46.8839 54.1672 47.7006 55.3131 48.5151 56.457C48.7383 56.7711 48.9852 56.9076 49.386 56.9054C54.9037 56.8946 60.4214 56.8968 65.9391 56.9141C66.4178 56.9162 66.5803 56.7364 66.693 56.2945C67.1436 54.5159 67.6115 52.7417 68.1292 50.9826C68.3177 50.3435 68.1639 50.2222 67.5335 50.2266C64.1258 50.2569 60.7182 50.2526 57.3083 50.2352C56.8317 50.2331 56.5003 50.3782 56.1818 50.7227C55.6532 51.2967 55.077 51.8297 54.3643 52.5337C54.843 50.7833 55.2611 49.2799 55.6684 47.7721C56.6779 44.0373 57.6788 40.2982 58.6991 36.5656C58.7815 36.2666 58.7511 36.2016 58.4565 36.0608C57.8478 35.7662 57.2932 35.3611 56.7148 35.0015C56.7213 34.9451 56.7299 34.8888 56.7364 34.8325C57.1589 34.8325 57.5791 34.8325 58.0016 34.8325C62.5726 34.8347 67.1436 34.8412 71.7146 34.8347C72.0048 34.8347 72.3861 34.9928 72.5139 34.514C73.0404 32.5405 73.5754 30.5691 74.1127 28.5977C74.143 28.4829 74.1452 28.3963 74.1257 28.3313L74.1647 28.3118Z" fill="#741313"/>
<path d="M72.7804 26.8646C71.929 26.9556 71.0798 26.8776 70.2284 26.8754C59.6523 26.8602 49.0762 26.8776 38.5001 26.8732C38.0127 26.8732 37.7765 27.0054 37.6509 27.495C36.9317 30.2744 36.1821 33.0473 35.4412 35.8224C35.4347 35.8484 35.4282 35.8744 35.4174 35.9004C35.2289 36.3532 35.3481 36.6413 35.8138 36.8644C36.3554 37.1222 36.8537 37.4688 37.5577 37.8891C35.0664 37.8891 32.8091 37.8891 30.5344 37.8891C30.7966 35.9676 31.5071 34.1977 31.9079 32.3519C32.2589 30.7337 32.7614 29.1436 33.2554 27.56C33.4438 26.9577 33.251 26.8819 32.7203 26.8862C30.2853 26.9079 27.8503 26.9231 25.4175 26.8884C24.7871 26.8797 24.5315 27.0769 24.3777 27.6834C23.6238 30.6405 22.8222 33.5846 22.0359 36.533C20.4046 42.6377 18.7798 48.7468 17.1312 54.8473C16.9904 55.3715 17.0208 55.5665 17.6317 55.56C20.1208 55.5362 22.6078 55.5513 25.0969 55.5578C25.4717 55.56 25.6775 55.5384 25.8053 55.0444C26.5527 52.1675 27.3629 49.3058 28.1904 46.4505C28.3226 45.9956 28.1688 45.8115 27.8222 45.6251C27.2676 45.324 26.726 45.0012 26.1779 44.6893C28.1125 44.5355 29.995 44.5355 31.8797 44.5355C33.1276 44.5355 33.1232 44.5355 32.8091 45.701C31.9902 48.7534 31.1692 51.8036 30.3655 54.8581C30.2961 55.1246 29.956 55.5687 30.6666 55.5665C33.29 55.5578 35.9135 55.5665 38.5369 55.5708C38.7059 55.5708 38.8662 55.5665 38.9659 55.4647C38.9984 55.4885 39.02 55.5037 39.02 55.5037L41.7236 45.3197C42.6378 42.0377 43.4957 38.7405 44.3471 35.4411L44.659 34.2691L44.6482 34.2756C44.685 34.1305 44.7219 33.9875 44.7609 33.8424C44.8713 33.4113 45.1161 33.5196 45.3501 33.5174C46.4051 33.5066 47.4623 33.5629 48.513 33.5001C49.2734 33.4568 49.334 33.7016 49.1542 34.3623C47.7028 39.7023 46.286 45.0532 44.8388 50.3933C44.7002 50.9045 44.7197 51.301 45.0576 51.7407C45.9155 52.8521 46.7322 53.9981 47.5468 55.1419C47.7699 55.456 48.0169 55.5925 48.4177 55.5903C53.9353 55.5795 59.453 55.5817 64.9707 55.6012C65.4495 55.6033 65.612 55.4235 65.7246 54.9816C66.1752 53.203 66.6431 51.4288 67.1609 49.6697C67.3472 49.0306 67.1956 48.9093 66.5651 48.9137C63.1575 48.944 59.7498 48.9397 56.34 48.9223C55.8634 48.9202 55.5319 49.0653 55.2135 49.4098C54.6849 49.9838 54.1086 50.5168 53.3959 51.2208C53.8747 49.4704 54.2928 47.967 54.7001 46.4592C55.7096 42.7244 56.7104 38.9853 57.7308 35.2527C57.8131 34.9537 57.7828 34.8887 57.4882 34.7479C56.8794 34.4533 56.3248 34.0482 55.7464 33.6907C55.7529 33.6344 55.7616 33.5781 55.7681 33.5218C56.1905 33.5218 56.6108 33.5218 57.0332 33.5218C61.6042 33.5239 66.1752 33.5304 70.7462 33.5239C71.0365 33.5239 71.4178 33.6821 71.5456 33.2033C72.072 31.2298 72.6071 29.2584 73.1443 27.287C73.2418 26.9382 73.088 26.8299 72.7804 26.8646Z" fill="#F1C327"/>
<path d="M51.769 6.61805C45.6036 -2.16433 29.5575 -2.21199 15.929 6.5119C15.6647 6.68087 15.4047 6.85202 15.1469 7.02532C16.4576 6.20211 17.8484 5.43739 19.3128 4.74199C32.8525 -1.6899 47.5447 0.229489 52.1308 9.03136C56.717 17.8311 49.4575 30.1793 35.9179 36.6111C22.3782 43.043 7.68601 41.1236 3.09985 32.3218C0.597719 27.519 1.6224 21.659 5.2727 16.2821C-0.329478 23.8167 -1.76577 32.2546 2.41312 38.2077C8.57855 46.9901 24.6247 47.0378 38.2532 38.3139C51.8817 29.5878 57.9323 15.3983 51.769 6.61805Z" fill="#F1C327"/>
<path d="M69.5892 17.9501L69.0411 18.1689C69.0411 18.1689 69.0801 18.4657 69.117 18.7603C69.0498 18.7603 68.9805 18.7668 68.9068 18.7798C68.3024 18.886 67.6872 19.0593 67.0871 19.0181C66.1187 18.9531 65.1699 19.0138 64.2123 19.1026C64.0629 19.1156 63.8744 19.0398 63.7509 18.9423C63.0035 18.3574 62.2713 17.7508 61.5282 17.1594C61.2011 16.8994 60.8372 16.7933 60.4017 16.8344C59.3121 16.9363 58.2202 17.0078 57.1284 17.0684C56.6561 17.0944 56.1795 17.0684 55.7051 17.0532C55.3715 17.0424 55.1288 16.8994 54.9859 16.5745C54.8472 16.2604 54.6847 15.9549 54.5006 15.6646C54.3208 15.383 54.2991 15.0949 54.4551 14.8262C54.8884 14.0789 55.3281 13.3336 55.8026 12.6144C56.0734 12.205 56.5196 12.0035 57.0006 12.0078C57.6981 12.0143 58.4087 12.0143 59.0868 12.1443C61.004 12.5126 62.9299 12.7639 64.8839 12.7595C65.2955 12.7595 65.7136 12.6057 66.1166 12.4844C66.214 12.4541 66.2639 12.2678 66.3354 12.1551C66.2379 12.0988 66.1447 12.0295 66.0407 11.9883C65.9498 11.9515 65.8458 11.9407 65.6573 11.8973C65.8089 11.8713 65.8674 11.8648 65.9259 11.8497C66.5152 11.7024 67.1391 11.6677 67.5658 11.1088C67.7673 10.8445 67.8821 10.656 67.9038 10.5065C68.0923 9.99312 67.9103 9.50785 67.867 9.38221L67.1001 9.41037L66.8163 9.81981C66.0667 9.55551 65.3258 9.26306 64.585 8.9771C64.4463 8.92294 64.3055 8.83412 64.2058 8.72364C63.8354 8.32286 63.5018 7.88526 63.114 7.50398C62.8779 7.27002 62.5919 7.01439 62.2843 6.93423C61.4849 6.7306 60.6595 6.62011 59.8471 6.4663C59.7302 6.44464 59.5894 6.40564 59.5114 6.32549C59.2297 6.03736 58.8961 5.84673 58.5322 5.72324C58.933 6.35798 58.6405 7.43033 57.6613 7.43033C57.176 7.43033 56.8598 7.1682 56.7124 6.82592C56.0495 6.86058 55.3931 6.89091 54.7671 7.04472C53.5279 7.34801 52.3364 7.83977 51.1211 8.24704C50.9759 8.2947 50.8265 8.34453 50.677 8.35536C49.6935 8.41601 48.7078 8.43984 47.7286 8.52866C46.0302 8.68248 44.3924 9.08542 42.9366 10.0018C40.8244 11.3341 38.5151 12.1075 36.0823 12.5797C34.4749 12.8917 32.8696 13.2253 31.2708 13.5871C29.5443 13.9792 27.8935 14.6053 26.2579 15.279C26.0954 15.3462 25.8961 15.3397 25.7142 15.3418C25.0881 15.3483 24.436 15.2292 23.8446 15.37C22.9304 15.5888 22.0422 15.9419 21.1713 16.308C20.0297 16.789 18.9053 17.311 17.7723 17.8115L16.8603 17.4345C16.8603 17.4345 16.2039 18.0909 15.4912 18.0909C14.7806 18.0909 10.1273 17.5428 10.1273 17.5428L6.90809 16.2365L6.82577 16.1347C6.76945 16.5355 6.59831 16.802 6.8496 17.1139C6.84094 17.1117 6.83444 17.1096 6.82577 17.1074C6.8301 17.1724 6.87127 17.1876 6.90809 17.2092C6.93842 17.2266 6.96875 17.2439 6.99908 17.259C7.17672 17.4064 7.45185 17.5688 7.88295 17.7616C7.91545 17.7725 7.94361 17.7811 7.9761 17.7898C8.99862 18.3162 10.0558 18.7668 11.1541 19.1221C12.3933 19.5229 13.6519 19.7807 14.9734 19.5965C16.8126 19.3387 18.5479 18.743 20.242 18.0151C21.1193 17.6382 22.0379 17.4497 23.0409 17.311C22.8741 17.4952 22.7441 17.6295 22.625 17.7703C21.7974 18.7517 21.2147 19.8803 20.6492 21.0198C20.5756 21.1693 20.4543 21.3166 20.3178 21.4076C18.8988 22.3478 17.3044 22.7269 15.6276 22.7789C14.7676 22.8049 14.0657 23.0237 13.457 23.6996C12.3976 24.8781 11.1736 25.8833 9.798 26.6827C9.59437 26.8018 9.3409 26.869 9.10477 26.8885C8.85564 26.9101 8.60868 26.9361 8.36821 26.986L7.7768 26.6003L7.28504 26.7108C7.02724 26.9513 7.09223 27.5492 7.29587 27.9478C7.38036 28.2273 7.59266 28.3833 7.88728 28.4244C8.03893 28.4461 8.1949 28.4331 8.34871 28.4439C9.40373 28.5132 10.3937 28.3703 11.3036 27.755C12.4041 27.0119 13.5761 26.3707 14.6636 25.6082C15.502 25.0189 16.4422 25.1836 17.3672 25.0644C16.3772 25.7706 15.3742 26.4379 14.3235 27.0206C13.7646 27.3304 13.3681 27.7377 13.0497 28.2663C12.4691 29.2325 11.8885 30.2008 11.2863 31.154C10.9375 31.7043 10.4869 32.1332 9.84783 32.3715C9.70702 32.4235 9.56837 32.4928 9.43406 32.5686L9.31491 32.2957L9.04195 32.2134L8.46786 32.404C8.34655 32.7181 8.33788 33.1947 8.50036 33.5175C8.52202 33.6475 8.62384 33.7558 8.80581 33.8208C8.85131 33.8403 8.8968 33.8554 8.94879 33.8619C10.0255 34.0634 11.0545 33.8143 11.8214 33.0647C13.0519 31.8602 14.1827 30.5561 15.3395 29.278C15.58 29.0115 15.8529 28.8425 16.1801 28.7169C18.8187 27.7008 21.4031 26.57 23.8229 25.0947C24.9711 24.395 26.0803 23.6389 26.923 22.5579C26.9771 22.4886 27.066 22.4345 27.1505 22.402C28.1513 22.0012 29.15 21.5939 30.1573 21.2126C31.0001 20.8942 31.8363 20.5432 32.7071 20.3223C33.981 19.9995 35.2851 20.1576 36.5719 20.2984C38.7534 20.5367 40.9306 20.7989 43.1078 21.0697C45.5969 21.3816 47.8889 20.7664 50.0704 19.6225C50.2892 19.5077 50.4105 19.5164 50.5903 19.6832C51.3291 20.3721 52.096 21.0307 52.8303 21.7239C53.4976 22.3543 54.2081 22.6923 55.1743 22.4778C57.8519 21.8842 60.5967 21.6286 63.2397 20.8552C63.3501 20.8227 63.5234 20.892 63.6274 20.9678C64.1842 21.3708 64.7041 21.8257 65.2847 22.1897C65.7223 22.4648 66.253 22.454 66.7275 22.2481C66.8705 22.1853 67.0286 22.0099 67.0806 21.8517C67.2322 21.6264 67.3406 21.0177 67.0546 20.5779C67.0243 20.5324 66.9918 20.5042 66.9593 20.4826C66.9636 20.4847 66.9701 20.4847 66.9744 20.4869C67.8778 20.8509 69.0801 20.5259 69.6282 19.8045C70.1113 19.4146 69.9163 18.3076 69.5892 17.9501ZM61.7449 19.4991C60.5555 19.7395 59.39 19.5164 58.1942 19.2261C58.7531 18.9986 59.3099 18.7647 59.871 18.5459C59.949 18.5155 60.0681 18.5285 60.1461 18.5654C60.6942 18.8318 61.2379 19.1113 61.7817 19.3864C61.7687 19.4232 61.7557 19.4622 61.7449 19.4991ZM66.2054 21.009C66.1361 20.983 66.0667 20.957 65.9996 20.9267C65.7375 20.8054 65.4883 20.6602 65.2327 20.5237C65.2435 20.4912 65.2522 20.4587 65.263 20.4241C65.7916 20.3959 66.3137 20.2768 66.8466 20.4479C66.6018 20.4436 66.3094 20.8552 66.2054 21.009Z" fill="#741313"/>
<path d="M65.235 19.5554C65.4906 19.6897 65.7397 19.8349 66.0019 19.9584C66.2488 20.0732 66.5326 20.1273 66.7514 20.279C66.9139 20.3916 67.0959 20.6213 67.0894 20.7924C67.0829 20.9636 66.8879 21.2062 66.7146 21.2798C66.2402 21.4856 65.7116 21.4965 65.2718 21.2214C64.6912 20.8574 64.1713 20.4025 63.6146 19.9995C63.5084 19.9237 63.3373 19.8544 63.2268 19.8869C60.5838 20.6603 57.8391 20.9137 55.1615 21.5095C54.1953 21.7239 53.4847 21.3838 52.8175 20.7556C52.0831 20.0624 51.3162 19.4038 50.5775 18.7149C50.3977 18.5481 50.2763 18.5394 50.0575 18.6542C47.876 19.7981 45.584 20.4133 43.0949 20.1014C40.9177 19.8284 38.7405 19.5684 36.559 19.3301C35.2722 19.1893 33.9681 19.0333 32.6943 19.354C31.8256 19.5728 30.9872 19.9259 30.1445 20.2443C29.1371 20.6256 28.1384 21.0329 27.1376 21.4337C27.0531 21.4662 26.9643 21.5203 26.9101 21.5896C26.0696 22.6706 24.9582 23.4267 23.8101 24.1264C21.3903 25.5995 18.8058 26.7325 16.1672 27.7486C15.8379 27.8742 15.5671 28.0454 15.3266 28.3096C14.1698 29.5856 13.0368 30.8919 11.8085 32.0964C11.0416 32.8481 10.0126 33.0973 8.93592 32.8958C8.42466 32.8005 8.32501 32.4235 8.72145 32.0856C9.05073 31.8061 9.43418 31.5548 9.83495 31.4054C10.4762 31.1649 10.9268 30.736 11.2734 30.1879C11.8757 29.2347 12.4562 28.2663 13.0368 27.3001C13.3553 26.7715 13.7517 26.3643 14.3106 26.0545C15.3613 25.4717 16.3665 24.8045 17.3543 24.0983C16.4293 24.2174 15.4891 24.0528 14.6507 24.642C13.5654 25.4067 12.3934 26.0458 11.2907 26.7889C10.3809 27.4041 9.39085 27.5471 8.33584 27.4799C8.18203 27.4691 8.02605 27.4821 7.87441 27.4604C7.56462 27.4171 7.34365 27.246 7.27 26.9362C7.20067 26.6481 7.38048 26.4618 7.59712 26.3209C8.05205 26.0263 8.5698 25.9678 9.09406 25.9223C9.33019 25.9007 9.58366 25.8335 9.78729 25.7165C11.1629 24.9171 12.3869 23.912 13.4463 22.7335C14.055 22.0576 14.7569 21.8388 15.6169 21.8128C17.2937 21.7608 18.8881 21.3817 20.3071 20.4415C20.4436 20.3505 20.5649 20.2032 20.6385 20.0537C21.2039 18.912 21.7867 17.7855 22.6142 16.8042C22.7334 16.6634 22.8634 16.529 23.0302 16.3449C22.0272 16.4836 21.1086 16.672 20.2313 17.049C18.5372 17.7769 16.8019 18.3726 14.9627 18.6304C13.6434 18.8145 12.3847 18.5567 11.1434 18.156C9.65948 17.675 8.24919 17.023 6.89738 16.2409C6.86056 16.2193 6.8194 16.2041 6.81506 16.1391C7.85491 16.4576 8.88826 16.7955 9.9346 17.0901C10.916 17.3674 11.9081 17.5992 12.8982 17.8505C14.0312 18.1386 15.1382 17.9458 16.1802 17.5212C17.8591 16.8388 19.4925 16.0459 21.1606 15.3419C22.0293 14.9758 22.9197 14.6205 23.8339 14.4039C24.4253 14.263 25.0774 14.3822 25.7035 14.3757C25.8854 14.3735 26.0847 14.38 26.2472 14.3129C27.8828 13.6413 29.5336 13.0131 31.2601 12.621C32.8589 12.2592 34.4642 11.9256 36.0716 11.6136C38.5044 11.1413 40.8137 10.3679 42.9259 9.03565C44.3817 8.11711 46.0195 7.71417 47.7179 7.56253C48.6971 7.47371 49.6828 7.45204 50.6663 7.38922C50.8158 7.38055 50.9674 7.33073 51.1104 7.2809C52.3235 6.87363 53.5172 6.38403 54.7564 6.07858C55.6446 5.85978 56.5934 5.89011 57.5401 5.80562C57.6636 5.31602 57.265 5.11889 56.9617 4.85676C57.3451 4.5513 57.7567 4.56647 58.164 4.65529C58.6688 4.76577 59.128 4.97807 59.5007 5.35935C59.5786 5.43951 59.7195 5.4785 59.8364 5.50016C60.6488 5.65614 61.4742 5.76446 62.2736 5.9681C62.5812 6.04608 62.865 6.30388 63.1033 6.53785C63.4911 6.92129 63.8247 7.35673 64.1951 7.7575C64.2948 7.86582 64.4356 7.9568 64.5742 8.01096C65.4473 8.34891 66.3182 8.69769 67.2064 8.99448C68.0274 9.26744 68.0816 9.45375 67.553 10.1448C67.1262 10.7037 66.5023 10.7384 65.913 10.8857C65.8567 10.9009 65.7982 10.9074 65.6444 10.9334C65.8329 10.9767 65.9369 10.9854 66.0279 11.0244C66.1318 11.0677 66.225 11.1348 66.3225 11.1912C66.251 11.306 66.2012 11.4923 66.1037 11.5204C65.7007 11.6418 65.2848 11.7956 64.871 11.7956C62.9192 11.7977 60.9911 11.5486 59.0739 11.1803C58.3937 11.0503 57.6831 11.0503 56.9877 11.0438C56.5068 11.0395 56.0605 11.241 55.7897 11.6504C55.3131 12.3697 54.8755 13.1149 54.4422 13.8623C54.2863 14.1331 54.3079 14.419 54.4877 14.7006C54.6719 14.9909 54.8365 15.2964 54.973 15.6105C55.116 15.9355 55.3608 16.0806 55.6922 16.0893C56.1666 16.1044 56.6432 16.1304 57.1155 16.1044C58.2073 16.0438 59.2992 15.9723 60.3889 15.8705C60.8243 15.8293 61.1882 15.9355 61.5154 16.1954C62.2584 16.7868 62.9906 17.3934 63.738 17.9783C63.8615 18.0737 64.05 18.1516 64.1995 18.1386C65.157 18.0498 66.1059 17.9892 67.0742 18.0542C67.6721 18.0931 68.2895 17.922 68.8939 17.8159C69.2211 17.7574 69.4897 17.8115 69.6782 18.0866C69.8601 18.3488 69.7865 18.6022 69.6045 18.8405C69.0543 19.5619 67.8541 19.8869 66.9507 19.5229C66.3766 19.2911 65.8177 19.432 65.2523 19.4623C65.2545 19.4883 65.2458 19.5208 65.235 19.5554ZM61.745 18.5286C61.758 18.4918 61.7688 18.4528 61.7818 18.4159C61.2381 18.1408 60.6943 17.8613 60.1462 17.5949C60.0682 17.5559 59.9491 17.5451 59.8711 17.5754C59.31 17.7942 58.7533 18.026 58.1943 18.2556C59.388 18.5459 60.5557 18.769 61.745 18.5286Z" fill="#F1C327"/>
</svg>
